<svg width="25" height="25" viewBox="0 0 25 25" fill="none" xmlns="http://www.w3.org/2000/svg">
<path d="M18.75 8.33337C18.75 6.67577 18.0915 5.08606 16.9194 3.91396C15.7473 2.74185 14.1576 2.08337 12.5 2.08337C10.8424 2.08337 9.25269 2.74185 8.08058 3.91396C6.90848 5.08606 6.25 6.67577 6.25 8.33337C6.25 15.625 3.125 17.7084 3.125 17.7084H21.875C21.875 17.7084 18.75 15.625 18.75 8.33337Z" fill="#1D2125"/>
<path d="M14.302 21.875C14.1189 22.1907 13.856 22.4528 13.5398 22.6349C13.2235 22.8171 12.8649 22.913 12.5 22.913C12.135 22.913 11.7764 22.8171 11.4601 22.6349C11.1439 22.4528 10.881 22.1907 10.6979 21.875" stroke="#1D2125" stroke-width="2" stroke-linecap="round" stroke-linejoin="round"/>
</svg>
