<svg width="30" height="30" viewBox="0 0 30 30" fill="none" xmlns="http://www.w3.org/2000/svg">
<path d="M27.5062 17.3603L29.9684 6.52699C30.1461 5.7448 29.5516 4.99996 28.7495 4.99996H8.29208L7.81469 2.66611C7.69573 2.08439 7.18385 1.66663 6.59005 1.66663H1.25C0.559635 1.66663 0 2.22626 0 2.91663V3.74996C0 4.44032 0.559635 4.99996 1.25 4.99996H4.88974L8.54849 22.8872C7.67318 23.3906 7.08333 24.3344 7.08333 25.4166C7.08333 27.0275 8.38917 28.3333 10 28.3333C11.6108 28.3333 12.9167 27.0275 12.9167 25.4166C12.9167 24.6003 12.5809 23.8627 12.0404 23.3333H22.9595C22.4191 23.8627 22.0833 24.6003 22.0833 25.4166C22.0833 27.0275 23.3892 28.3333 25 28.3333C26.6108 28.3333 27.9167 27.0275 27.9167 25.4166C27.9167 24.2618 27.2454 23.2639 26.2719 22.7914L26.5593 21.527C26.737 20.7448 26.1425 20 25.3404 20H11.3603L11.0194 18.3333H26.2873C26.871 18.3333 27.3769 17.9294 27.5062 17.3603Z" fill="white"/>
</svg>
