<svg width="27" height="27" viewBox="0 0 27 27" fill="none" xmlns="http://www.w3.org/2000/svg">
<g clip-path="url(#clip0_36_18)">
<path d="M1.72145 12.8442L9.80224 4.52052C10.5237 3.77734 11.8007 4.27118 11.8163 5.32087L11.8857 10.0079L18.5256 9.90956C19.1749 9.89994 19.705 10.4146 19.7146 11.064L19.784 15.7509C19.7936 16.4003 19.279 16.9304 18.6296 16.94L11.9897 17.0383L12.0591 21.7253C12.0746 22.7701 10.8177 23.3064 10.0697 22.5849L1.74602 14.5042C1.28518 14.0519 1.27419 13.3098 1.72145 12.8442ZM16.4946 4.66561L16.5235 6.61852C16.5283 6.94075 16.7958 7.20049 17.118 7.19572L21.2191 7.135C22.0833 7.12221 22.7918 7.81004 22.8046 8.6742L22.9434 18.0482C22.9562 18.9123 22.2684 19.6208 21.4042 19.6336L17.3031 19.6944C16.9808 19.6991 16.7211 19.9667 16.7259 20.2889L16.7548 22.2418C16.7596 22.564 17.0271 22.8238 17.3493 22.819L21.4504 22.7583C24.0381 22.72 26.1064 20.5895 26.068 18.0019L25.9293 8.62794C25.891 6.04034 23.7605 3.97204 21.1729 4.01035L17.0718 4.07106C16.7495 4.07583 16.4898 4.34338 16.4946 4.66561Z" fill="black"/>
</g>
<defs>
<clipPath id="clip0_36_18">
<rect width="25" height="25" fill="white" transform="translate(26.1837 25.8135) rotate(179.152)"/>
</clipPath>
</defs>
</svg>
