<svg width="25" height="25" viewBox="0 0 25 25" fill="none" xmlns="http://www.w3.org/2000/svg">
<path d="M22.5195 6.6875H3.90625C3.47461 6.6875 3.125 6.33789 3.125 5.90625C3.125 5.47461 3.47461 5.125 3.90625 5.125H22.6562C23.0879 5.125 23.4375 4.77539 23.4375 4.34375C23.4375 3.04932 22.3882 2 21.0938 2H3.125C1.39893 2 0 3.39893 0 5.125V20.75C0 22.4761 1.39893 23.875 3.125 23.875H22.5195C23.8877 23.875 25 22.8237 25 21.5312V9.03125C25 7.73877 23.8877 6.6875 22.5195 6.6875ZM20.3125 16.8438C19.4497 16.8438 18.75 16.144 18.75 15.2812C18.75 14.4185 19.4497 13.7188 20.3125 13.7188C21.1753 13.7188 21.875 14.4185 21.875 15.2812C21.875 16.144 21.1753 16.8438 20.3125 16.8438Z" fill="#1D2125"/>
</svg>
